<?xml version="1.0" standalone="no"?>
<!DOCTYPE svg PUBLIC "-//W3C//DTD SVG 20010904//EN"
 "http://www.w3.org/TR/2001/REC-SVG-20010904/DTD/svg10.dtd">
<svg version="1.0" xmlns="http://www.w3.org/2000/svg"
 width="109.000000pt" height="109.000000pt" viewBox="0 0 109.000000 109.000000"
 preserveAspectRatio="xMidYMid meet">
<metadata>
Created by potrace 1.11, written by Peter Selinger 2001-2013
</metadata>
<g transform="translate(0.000000,109.000000) scale(0.100000,-0.100000)"
fill="#000000" stroke="none">
<path d="M233 1042 c-6 -4 14 -7 45 -7 32 0 68 -3 82 -7 19 -6 18 -4 -5 7 -32
15 -102 20 -122 7z"/>
<path d="M725 1035 c-34 -15 -29 -20 7 -6 17 6 29 5 43 -5 10 -8 15 -14 9 -15
-5 -1 -25 -3 -44 -6 -19 -2 -44 -5 -55 -6 -32 -3 -91 -45 -128 -89 l-34 -40
-22 37 c-12 21 -24 35 -27 32 -3 -3 -24 8 -47 24 -55 40 -99 50 -197 43 -108
-7 -140 -26 -179 -109 -41 -86 -50 -127 -46 -210 2 -62 10 -88 48 -167 52
-108 122 -186 257 -288 47 -35 104 -81 128 -102 23 -21 53 -44 67 -50 14 -6
25 -17 25 -25 0 -21 27 -15 33 8 3 12 10 18 15 15 10 -6 135 73 177 111 42 39
58 66 17 30 -23 -20 -44 -37 -47 -37 -8 0 15 41 43 76 14 18 27 44 29 58 9 72
11 81 21 79 6 -2 39 53 73 122 34 69 65 123 69 120 10 -6 65 213 56 222 -3 4
-7 -5 -7 -18 -1 -26 -27 61 -28 96 0 20 0 20 14 1 8 -11 15 -28 15 -37 0 -10
4 -20 9 -23 11 -7 -2 51 -19 84 -11 23 -9 22 20 -6 49 -48 50 -89 5 -236 -39
-125 -107 -274 -153 -338 l-26 -35 32 29 c31 29 112 182 125 237 4 15 21 64
39 110 25 67 33 79 40 64 5 -12 6 11 3 59 -6 91 -31 146 -82 177 -42 26 -231
36 -278 14z m-348 -80 c52 -24 78 -43 93 -67 11 -18 20 -29 20 -24 0 6 5 5 11
-1 6 -6 8 -20 4 -32 -6 -19 -14 -13 -78 53 -63 64 -78 75 -117 81 -57 8 -88
-4 -146 -57 -43 -39 -47 -41 -42 -18 3 14 9 34 13 45 l7 20 -14 -20 c-9 -11
-19 -35 -23 -53 -3 -18 -15 -36 -24 -42 -12 -6 -21 -27 -25 -62 -4 -30 -10
-47 -15 -40 -20 34 19 160 64 202 13 12 34 23 46 25 13 2 42 10 64 19 48 18
68 14 162 -29z m565 27 c3 7 7 8 10 3 3 -6 0 -16 -8 -23 -11 -10 -15 -8 -25
10 -11 20 -10 22 3 10 13 -10 17 -10 20 0z m-82 -22 c0 -5 -7 -7 -15 -4 -8 4
-15 8 -15 10 0 2 7 4 15 4 8 0 15 -4 15 -10z m-577 -17 c-7 -2 -13 -10 -13
-17 0 -7 -16 -20 -35 -29 -35 -17 -46 -12 -23 11 7 7 20 12 30 12 11 0 15 5
12 15 -5 11 0 15 17 14 13 0 18 -3 12 -6z m330 -33 c-21 -23 -38 -44 -38 -48
0 -4 -6 -16 -13 -27 -11 -18 -12 -17 -6 10 12 58 16 67 47 86 49 29 52 23 10
-21z m303 5 c2 -11 -2 -12 -17 -2 -13 8 -15 13 -6 19 13 8 20 3 23 -17z m-296
-75 c-52 -60 -60 -67 -60 -52 0 8 98 112 106 112 3 0 -17 -27 -46 -60z m-453
23 c-9 -9 -19 -14 -22 -11 -3 3 2 13 11 22 9 9 19 14 22 11 3 -3 -2 -13 -11
-22z m209 17 c8 0 22 -16 30 -35 8 -19 18 -35 23 -35 10 0 18 -20 26 -59 5
-28 -12 -37 -20 -11 -4 11 -17 31 -29 43 -17 18 -27 21 -39 13 -12 -8 -22 -5
-41 13 -40 38 -4 60 37 24 25 -22 15 0 -17 36 -19 22 -19 23 -3 18 10 -4 25
-7 33 -7z m369 0 c3 -6 -4 -10 -17 -10 -18 0 -20 2 -8 10 19 12 18 12 25 0z
m219 -97 c1 -68 -3 -86 -30 -143 -18 -36 -39 -74 -48 -85 -15 -19 -15 -18 -5
13 6 17 15 35 20 38 13 7 -9 34 -27 34 -9 0 -3 27 21 98 19 53 35 110 35 127
0 27 1 28 17 13 12 -13 16 -36 17 -95z m-656 84 c-9 -7 -33 -42 -54 -77 -26
-44 -40 -59 -42 -47 -2 9 -8 14 -14 11 -11 -7 -9 6 7 51 5 16 5 17 -4 5 -9
-13 -11 -11 -11 7 0 25 32 62 38 44 2 -6 8 -8 14 -5 6 4 6 -2 -1 -14 -20 -37
-11 -37 20 1 17 20 38 37 47 37 16 -1 16 -2 0 -13z m597 3 c3 -5 1 -10 -4 -10
-6 0 -11 5 -11 10 0 6 2 10 4 10 3 0 8 -4 11 -10z m-133 -22 c-7 -7 -12 -8
-12 -2 0 14 12 26 19 19 2 -3 -1 -11 -7 -17z m-68 -57 c-9 -9 -14 -10 -10 -3
4 6 5 12 2 12 -2 0 -19 -22 -37 -50 -36 -56 -43 -62 -29 -24 17 45 10 40 -25
-16 -34 -55 -48 -93 -20 -56 24 32 16 5 -19 -63 l-33 -64 3 56 c1 31 8 74 15
94 13 39 107 155 120 148 4 -3 13 2 20 11 11 14 14 13 21 -7 6 -16 4 -27 -8
-38z m-543 -14 c-5 -39 -4 -57 3 -57 8 0 8 -3 0 -8 -6 -4 -10 -15 -8 -24 5
-34 -14 -17 -29 25 -18 53 -13 87 16 109 12 9 23 16 24 15 1 -2 -2 -28 -6 -60z
m723 8 c-11 -63 -25 -104 -45 -127 -22 -26 -22 -32 1 62 30 120 32 124 41 109
4 -8 6 -27 3 -44z m-88 -1 c-3 -9 -6 -18 -6 -20 0 -3 -4 -3 -10 1 -11 7 -2 35
12 35 6 0 7 -7 4 -16z m-499 -28 c-23 -60 -10 -183 33 -304 10 -26 9 -26 -6
-7 -75 93 -96 324 -30 325 4 0 6 -6 3 -14z m380 -38 c-27 -47 -57 -100 -76
-136 -22 -42 -22 -17 0 29 27 54 87 149 95 149 3 0 -5 -19 -19 -42z m-283 7
c3 -9 0 -15 -9 -15 -8 0 -15 7 -15 15 0 8 4 15 9 15 5 0 11 -7 15 -15z m-350
-75 c2 -14 5 -34 5 -45 1 -13 4 -16 9 -8 4 7 47 -51 109 -148 56 -87 99 -159
94 -159 -13 0 -45 32 -103 106 -69 87 -98 133 -98 157 0 10 -9 30 -19 45 -22
29 -36 105 -25 124 8 12 19 -16 28 -72z m82 28 c9 -28 30 -72 46 -97 37 -60
64 -152 38 -136 -22 13 -110 212 -110 248 0 20 2 37 4 37 3 0 12 -23 22 -52z
m-49 10 c-3 -7 -5 -2 -5 12 0 14 2 19 5 13 2 -7 2 -19 0 -25z m268 -15 c-8
-32 -13 -39 -21 -30 -10 9 5 57 17 57 7 0 9 -10 4 -27z m-115 -8 c0 -14 -4
-25 -10 -25 -11 0 -14 33 -3 43 11 11 13 8 13 -18z m567 -11 c-6 -20 -13 -32
-14 -27 -4 11 14 63 21 63 2 0 -1 -16 -7 -36z m-87 18 c0 -5 -7 -17 -16 -28
-8 -10 -14 -14 -11 -9 2 6 7 18 10 28 7 17 17 23 17 9z m-345 -78 c-2 -10 -4
-23 -4 -27 -1 -5 -5 -5 -11 -2 -11 7 -14 58 -3 69 10 10 22 -17 18 -40z m52
16 c1 -11 -2 -18 -8 -15 -11 7 -12 35 -1 35 4 0 8 -9 9 -20z m-175 -52 c-2
-10 -6 -18 -8 -18 -10 0 -24 55 -19 69 5 13 9 12 19 -8 8 -13 11 -32 8 -43z
m578 23 c0 -5 -9 -19 -20 -32 l-20 -24 17 32 c19 34 23 39 23 24z m30 -23
c-12 -40 -62 -116 -67 -101 -5 13 19 62 49 106 25 35 29 34 18 -5z m-135 2 c3
-5 1 -10 -4 -10 -6 0 -11 5 -11 10 0 6 2 10 4 10 3 0 8 -4 11 -10z m-315 -30
c0 -5 -2 -10 -4 -10 -3 0 -8 5 -11 10 -3 6 -1 10 4 10 6 0 11 -4 11 -10z m446
-47 c-8 -16 -22 -37 -31 -48 -14 -18 -14 -16 1 15 17 36 33 60 40 60 3 0 -2
-12 -10 -27z m-476 -34 c0 -5 -4 -9 -10 -9 -5 0 -10 7 -10 16 0 8 5 12 10 9 6
-3 10 -10 10 -16z m284 -26 c-63 -109 -59 -101 -31 -71 14 16 30 36 36 45 5
10 13 14 17 10 11 -10 -18 -57 -49 -81 -21 -16 -27 -16 -40 -5 -13 12 -13 17
0 44 22 42 73 105 85 105 5 0 -3 -21 -18 -47z m-244 17 c0 -11 -7 -20 -15 -20
-15 0 -21 21 -8 33 12 13 23 7 23 -13z m364 -72 c-18 -32 -67 -88 -75 -88 -6
0 9 23 32 50 41 48 58 63 43 38z m-444 -35 c0 -12 -2 -12 -15 1 -8 8 -15 17
-15 20 0 3 7 3 15 0 8 -4 15 -13 15 -21z m96 0 c-8 -8 -36 5 -36 17 0 7 6 7
21 0 11 -7 18 -14 15 -17z m49 -22 c3 -5 1 -12 -5 -16 -5 -3 -10 1 -10 9 0 18
6 21 15 7z m35 -42 c0 -6 -4 -7 -10 -4 -5 3 -10 11 -10 16 0 6 5 7 10 4 6 -3
10 -11 10 -16z m20 -54 c0 -14 -4 -13 -32 1 -44 22 -59 35 -53 44 8 13 85 -29
85 -45z m166 7 c-31 -49 -46 -60 -46 -33 0 12 5 21 10 21 6 0 10 6 10 14 0 13
41 47 48 41 2 -2 -8 -21 -22 -43z m-254 -25 c7 -12 1 -27 -10 -27 -11 0 -62
50 -62 61 0 11 61 -18 72 -34z m63 -47 c3 -5 2 -10 -4 -10 -5 0 -13 5 -16 10
-3 6 -2 10 4 10 5 0 13 -4 16 -10z"/>
<path d="M656 803 c-6 -14 -5 -15 5 -6 7 7 10 15 7 18 -3 3 -9 -2 -12 -12z"/>
<path d="M410 1002 c0 -4 12 -15 26 -26 26 -18 26 -18 15 2 -10 19 -41 38 -41
24z"/>
<path d="M1068 678 c-21 -102 -73 -208 -135 -279 -38 -44 -40 -48 -10 -19 83
77 145 202 162 328 10 78 2 63 -17 -30z"/>
</g>
</svg>
